<?xml version="1.0" encoding="UTF-8"?>
<svg id="Layer_2" data-name="Layer 2" xmlns="http://www.w3.org/2000/svg" viewBox="0 0 252.58 218.95">
  <defs>
    <style>
      .cls-1 {
        fill: #1a1a1a;
      }
    </style>
  </defs>
  <g id="Layer_1-2" data-name="Layer 1">
    <g>
      <g>
        <path class="cls-1" d="M195.77,17.82l-11.28,5.87c-9.53,4.03-21.1,10.93-32.94,10.61-8.42.28-12.85-3.75-14.37-9.08-.49-1.71-2.42-2.55-3.97-1.69-11.55,6.32-21.22,8.8-30.17-1.41-2.55-2.7-3.77-8.29-7.22-8.8-6.2.31-11.12,9.52-12.86,14.44-.15,0-.37.3-.68.9-2.73.74-2.13-1.45-2.59-4.51-.78-6.92-4.58-18.61-12.97-9.93-3.94,5.36-6.07,12.11-8.12,20.08h-.23c-.29,1.26-1.18,2.32-2.48,2.26-1.85-.12-3.17-1.42-2.93-3.38,1.81-10.47,2.22-21.56,4.96-31.36,2.58-3.56,6.77-1.18,7.45,1.58.67,3.8-.81,4.19-1.58,8.8,9.1-9.95,16.75-1.92,18.5,9.25,2.28-6.65,13.06-17.85,19.74-8.8,8.88,14.96,18,11.09,30.12,2.48.62-.42,1.27-.88,1.93-1.36,2.83-2.07,6.13-5.12,8.89-7.28,3.5-2.73,7.12-5.38,10.43-5.72,7.67.18,11.1,8.86,8.62,13.34-.78.32-1.63,1.29-2.93,1.35-1.29.08-2.9-.21-2.93-.9-2.84-1.64-.43-10.26-4.66-7.94-3.01,1.06-8,7.39-9.65,13.71-1.61,7.17,4.53,10.87,11.51,10.61,13.49.52,30.2-8.62,37.68-19.86l1.35-.68,1.35-.23c1.92.44,2.66.43,3.84,2.93.5,1.49-.01,4.35-1.81,4.74Z"/>
        <path class="cls-1" d="M206.06,8.55c2.31,0,4.28-1.97,4.28-4.28s-1.96-4.28-4.28-4.28-4.28,1.97-4.28,4.28,1.96,4.28,4.28,4.28h0Z"/>
      </g>
      <path class="cls-1" d="M248.01,126.98l-4.4,2.67c-.21.13-.43.25-.65.37-1.98,1.08-4.41-.4-4.41-2.67v-52.44c.07-3.18.96-6.27,2.58-8.94l2.67-4.41c1.21-2.01-.23-4.57-2.57-4.57h-27.91c-2.35,0-3.79,2.56-2.57,4.57l2.67,4.42c.21.34.4.69.59,1.07.44.88.41,1.92-.06,2.77l-24.55,44.66c-2.57,4.68-9.33,4.52-11.7-.27-2.37-4.79-5.92-8.75-10.72-12.04-1.4-.96-1.7-2.9-.69-4.26l14.44-19.44c.38-.52.59-1.15.59-1.8v-16.68c0-1.66-1.35-3.01-3.01-3.01h-56.63c-1.66,0-3.01,1.36-3.01,3.02v22.41c0,2.35,2.56,3.79,4.57,2.57l4.4-2.67c2.81-1.7,6.04-2.61,9.32-2.61l19.64-.02c2.46,0,3.88,2.78,2.44,4.77l-12.7,17.52c-.37.52-.57,1.13-.57,1.76v3.51c0,1.64,1.31,2.98,2.95,3,2.52.04,6.19.3,9.12,1.35,3.53,1.27,5.98,3.72,7.06,7.21,1.98,6.42-.73,15.3-7.44,24.36-12.05,16.26-24.45,21.88-34,15.43-8.65-5.83-7.52-20.21-1.04-29.99.35-.53.5-1.09.5-1.65,0-1.56-1.24-3.02-3.01-3.02h-11.57c-1.85,0-3.24-1.7-2.87-3.51,1.39-6.8,2.13-14.05,1.9-21.63-.83-27.44-20.78-41.82-41.3-41.82-10.19,0-19.48,4.15-26.46,10.94-4.19,4.08-11.23,1.14-11.23-4.71v-1.95c0-2.09-2.07-3.54-4.04-2.83l-22.3,8.05c-2.27.82-2.71,3.85-.75,5.27l3.16,2.3c.78.57,1.24,1.47,1.24,2.43v82.31c-.01,3.27-.92,6.48-2.61,9.27l-2.67,4.39c-1.22,2.01.23,4.58,2.58,4.58h28.07c2.35,0,3.79-2.57,2.57-4.58l-2.67-4.39c-1.67-2.76-2.56-5.93-2.59-9.17v-25.43c0-5.72,6.82-8.8,11.03-4.93,6.68,6.15,15.6,9.79,25.66,9.79,4.3,0,8.35-1.04,11.88-2.45,2.4-.96,4.81,1.31,3.99,3.76-1.01,3-2.26,6.35-3.76,9.89-4.63,10.9-9.72,18.26-13.29,22.6-1.61,1.97-.2,4.93,2.35,4.92l8.42-.02c.86,0,1.69-.37,2.26-1.02,1.52-1.73,9.14-10.16,16.39-23.26.02-.04.04-.08.07-.12,2.24-4.06,8.11-3.84,10.06.38,6.58,14.22,20.67,24.07,36.96,24.07s31.21-10.75,37.54-26.33c1.02-2.51,3.42-4.17,6.13-4.17h28.92c1.66,0,3.01,1.35,3.01,3.01v9.14c0,3.29-.91,6.52-2.61,9.32l-2.67,4.4c-1.22,2.01.23,4.57,2.57,4.57h27.91c2.35,0,3.79-2.56,2.57-4.57l-2.67-4.41c-1.65-2.71-2.54-5.84-2.59-9v-7.58c0-2.26,2.43-3.75,4.42-2.66.21.12.43.25.64.37l4.41,2.67c2.01,1.22,4.57-.23,4.57-2.57v-19.76c0-2.35-2.56-3.79-4.57-2.57ZM87.15,108.22c-.37,4.09-2.1,9.65-8.17,12.95-2.19,1.19-4.38,1.71-6.5,1.71-8.23,0-15.65-7.94-20.08-16.09-3.61-6.64-5.47-13.54-5.24-19.43.15-4.09,1.44-9.56,6.69-12.41,13.3-7.22,22.95,3.85,28.69,14.41,3.5,6.43,5.13,13.12,4.61,18.85ZM213,132.18h-11.43c-2.28,0-3.73-2.43-2.65-4.43l11.38-21.13c1.48-2.75,5.65-1.7,5.66,1.42l.05,21.13c0,1.66-1.34,3.02-3.01,3.02Z"/>
      <g>
        <path class="cls-1" d="M109.26,218.89h4.86c-.11-.19-.27-.45-.38-.63-.9-1.49-1.19-2.84-1.26-3.22l-3.22-17.44h-3.25c.09.13.2.33.36.63.43.81.6,1.43.6,2.16,0,.6-.07,1.2-.2,1.78l-2.37,10.17c-.05-.28-.14-.53-.25-.76-.95-1.94-2.45-3.22-3.9-4.46-1.7-1.45-3.3-2.55-3.82-4.8-.29-1.26-.07-2.37.59-2.9.68-.53,1.67-.64,2.59-.28,1.46.58,3.32,3.31,4.15,5.07,0-.05,0-6.52,0-6.52h0c-.68.38-1.51.47-2.26.24l-.05-.02c-1.51-.43-3.07-.46-4.32.12-.58.27-2.71,1.72-3.26,3.98v-4.32h0c-.69.38-1.51.47-2.26.24l-.05-.02c-1.51-.43-3.07-.46-4.32.12-.65.3-3.31,2.13-3.38,4.93-.04,1.75.46,3.11,3.04,5.41.51.46,1.02.88,1.5,1.28,2.08,1.73,3.72,3.1,3.72,5.34,0,.88-.37,1.72-.98,2.23-.58.48-1.33.66-2.18.51-1.24-.22-3.27-1.86-5.33-5.8v5.08c-.41-.96-.58-1.72-.63-1.99l-3.22-17.44h-3.25c.08.13.2.33.36.63.43.81.6,1.43.6,2.16,0,.6-.07,1.2-.2,1.78l-2.98,12.77c-.19.59-.66,2.01-.96,2.71-.04.09-.08.17-.11.24-.22-.52-.33-1.09-.33-1.65v-16c0-.79.22-1.56.63-2.24l.25-.41h-3.49l-5.95,14.79c-.26.65-1.17.7-1.5.08l-7.91-14.87h-2.01l.24.41c.41.68.63,1.46.63,2.25v16c0,.78-.22,1.55-.63,2.22l-.25.41h2.77l-.25-.41c-.41-.68-.63-1.45-.63-2.24v-9.89c0-.86,1.16-1.15,1.56-.39l5.82,10.94c.33.62,1.24.57,1.5-.08l4.99-12.62c.34-.85,1.6-.61,1.6.3v11.74c0,.79-.22,1.56-.63,2.24l-.25.41h6.53l-.38-.63c-.28-.46-.37-1.03-.29-1.66l1.38-5.78c.09-.37.42-.64.81-.64h.96c.4,0,.74.28.81.68l1.2,6.36c-.03.36-.12.7-.28,1.03-.13.27-.27.48-.36.64h4.86c-.09-.15-.21-.35-.31-.51.32-.12.67-.18,1.01-.18.38,0,.76.07,1.12.22,1.16.48,2.07.48,2.51.47h.08c1.7,0,2.96-1,3.85-1.88.23-.22.44-.46.62-.71v2.44c.51-.36,1.11-.54,1.72-.54.38,0,.76.07,1.12.22,1.16.48,2.07.48,2.51.47h.08c1.7,0,2.96-1,3.86-1.88.17-.17.34-.34.48-.53-.16.44-.32.87-.44,1.16-.11.25-.2.43-.31.61l-.38.63h3.28l-.38-.63c-.28-.46-.38-1.03-.29-1.66l1.38-5.78c.09-.37.42-.64.81-.64h.96c.4,0,.74.28.81.68l1.2,6.36c-.03.36-.12.7-.28,1.03-.13.27-.27.48-.37.64ZM77.21,208.37l.64-2.81c.05-.22.37-.21.41,0l.51,2.82c.05.25-.15.49-.41.49h-.75c-.27,0-.46-.25-.4-.51ZM101.02,217.25c-.57.48-1.33.66-2.18.51-1.03-.18-2.61-1.35-4.3-4.01.1-.82,0-1.58-.29-2.17-.95-1.94-2.45-3.22-3.9-4.46-1.7-1.45-3.3-2.55-3.83-4.8-.29-1.26-.07-2.37.6-2.9.68-.53,1.67-.64,2.59-.28,1.43.56,3.23,3.19,4.09,4.95.22,1.28.97,2.5,2.98,4.29.51.46,1.02.88,1.5,1.28,2.08,1.73,3.72,3.1,3.72,5.34,0,.88-.37,1.72-.98,2.23ZM106.7,208.37l.64-2.81c.05-.22.37-.21.41,0l.51,2.82c.05.25-.15.49-.41.49h-.75c-.27,0-.46-.25-.4-.51Z"/>
        <g>
          <path class="cls-1" d="M125.33,200.15v10.27c-.05.61-.24,1.25-.54,1.88-.13.27-.27.48-.38.64h4.76c-.11-.15-.25-.37-.38-.64-.31-.63-.5-1.27-.55-1.87v-10.43c.07-.57.25-1.16.52-1.71.13-.27.27-.48.38-.64h-4.74c.11.15.25.37.38.64.31.62.5,1.26.54,1.86Z"/>
          <path class="cls-1" d="M125.44,217.85c-.2-.98.65-1.83,1.63-1.63.54.11.97.55,1.07,1.09.17.97-.66,1.79-1.62,1.61-.54-.1-.97-.54-1.08-1.07Z"/>
        </g>
        <g>
          <g>
            <path class="cls-1" d="M198.75,216.46v-10.27c.05-.61.24-1.25.54-1.88.13-.27.27-.48.38-.64h-4.76c.11.15.25.37.38.64.31.63.5,1.27.55,1.87v10.43c-.07.57-.25,1.16-.52,1.71-.13.27-.27.48-.38.64h4.74c-.11-.15-.25-.37-.38-.64-.31-.62-.5-1.26-.54-1.86Z"/>
            <path class="cls-1" d="M198.64,198.75c.2.98-.65,1.83-1.63,1.63-.54-.11-.97-.55-1.07-1.09-.17-.97.66-1.79,1.62-1.61.54.1.97.54,1.08,1.07Z"/>
          </g>
          <path class="cls-1" d="M158.92,211.25h1.42c-.51,1.79-1.48,3.4-2.82,4.68l-.03.03c-2.01,1.93-4.64,2.99-7.42,2.99s-5.61-1.14-7.63-3.21c-4.05-4.23-3.95-10.98.23-15.05,2.01-1.93,4.64-2.99,7.42-2.99v-.14h0v.14c2.9,0,5.61,1.14,7.63,3.22l.05.05.05.05c1.14,1.19,1.99,2.65,2.48,4.22h-2.9c-2.02-3.51-5.55-5.93-9.04-6.17-.19-.01-.38-.02-.56-.02-3.68,0-6.34,2.52-6.62,6.28-.19,2.83.92,5.83,3.05,8.25,2.07,2.35,4.81,3.8,7.51,3.96.19.01.39.02.58.02,3.67,0,6.32-2.5,6.6-6.23,0-.02,0-.05,0-.07h0Z"/>
          <path class="cls-1" d="M178.64,215.63c-1.53,0-2.98-.79-4.01-2.16l-.16-.21.27-.02c3.83-.25,6.47-3.56,6.43-8.06-.07-4.65-2.84-7.59-6.72-7.51h-4.11l.38.62c.4.65.61,1.4.61,2.16v15.71c0,.76-.21,1.5-.6,2.15l-.15.25c-.06-.09-.11-.18-.16-.25-.89-1.49-1.19-2.84-1.26-3.22l-3.22-17.44h-3.25c.08.13.2.33.36.63.43.81.6,1.43.6,2.16,0,.6-.07,1.2-.2,1.78l-2.98,12.77c-.19.59-.65,2.01-.96,2.71-.11.25-.2.43-.31.61l-.38.63h3.28l-.38-.63c-.28-.46-.38-1.03-.29-1.66l1.38-5.79c.09-.37.42-.63.8-.63h.96c.4,0,.74.28.82.68l1.2,6.36c-.02.36-.12.7-.28,1.03-.13.27-.27.48-.36.64h4.41,0s4.88.01,4.88.01l-.38-.63c-.4-.65-.61-1.4-.61-2.16v-2.61l.28.74c1.07,2.84,3.59,4.65,6.43,4.65h.22v-4.09c-.13.08-.27.17-.29.18-.7.39-1.45.58-2.23.58ZM164.52,208.93h-.75c-.27,0-.46-.25-.41-.51l.64-2.81c.05-.22.36-.21.41,0l.51,2.83c.05.25-.15.49-.41.49ZM174.23,212.73v-14.55h.19c1,.05,1.57.59,2.16,1.45,1.97,2.91,2.04,8.42.15,11.43-.61.99-1.1,1.64-2.28,1.68h-.22Z"/>
          <path class="cls-1" d="M193.95,218.33l.38.62h-3.93l-3.94-13.73c-.13-.46-.81-.37-.81.11v10.83c0,.76.21,1.51.6,2.16l.38.63h-4.88l.38-.63c.39-.65.6-1.4.6-2.16v-15.72c0-.76-.21-1.51-.6-2.16l-.38-.62h3.93l3.94,13.69c.13.46.81.37.81-.11v-10.79c0-.76-.21-1.51-.6-2.16l-.38-.63h4.88l-.38.63c-.4.65-.6,1.4-.6,2.16v15.72c0,.76.21,1.51.6,2.16Z"/>
        </g>
      </g>
    </g>
  </g>
</svg>