<?xml version="1.0"?>
<svg id="Layer_2" data-name="Layer 2" xmlns="http://www.w3.org/2000/svg" viewBox="0 0 359.81 99.96">
  
  <g id="Layer_1-2" data-name="Layer 1">
    <g>
      <g>
        <g>
          <path fill="#0D0D0D" d="M168.74,35.86l-13.33,6.93c-11.26,4.75-24.92,12.92-38.91,12.53-9.95.33-15.18-4.43-16.97-10.72-.57-2.02-2.85-3.01-4.69-2-13.64,7.46-25.07,10.4-35.64-1.67-3.02-3.19-4.46-9.79-8.53-10.39-7.32.36-13.13,11.24-15.19,17.06-.18,0-.44.36-.8,1.07-3.22.87-2.52-1.72-3.06-5.33-.92-8.18-5.4-21.98-15.32-11.73-4.65,6.33-7.17,14.3-9.59,23.72h-.27c-.35,1.49-1.39,2.74-2.93,2.67-2.19-.14-3.75-1.67-3.46-4,2.14-12.37,2.62-25.46,5.86-37.05,3.04-4.21,8-1.4,8.8,1.87.79,4.49-.96,4.95-1.87,10.39,10.75-11.75,19.79-2.27,21.85,10.93,2.69-7.86,15.42-21.09,23.32-10.39,10.48,17.66,21.26,13.1,35.58,2.93.74-.5,1.5-1.04,2.28-1.61,3.35-2.45,7.23-6.05,10.51-8.6,4.14-3.22,8.4-6.35,12.32-6.76,9.06.21,13.11,10.47,10.19,15.76-.92.38-1.93,1.52-3.46,1.6-1.52.09-3.42-.25-3.46-1.07-3.35-1.93-.51-12.12-5.51-9.38-3.56,1.25-9.44,8.73-11.4,16.19-1.9,8.47,5.35,12.84,13.59,12.53,15.94.62,35.68-10.18,44.51-23.45l1.6-.8,1.6-.27c2.27.52,3.14.51,4.53,3.46.59,1.76-.02,5.13-2.13,5.6Z"></path>
          <path fill="#0D0D0D" d="M180.9,24.92c2.73,0,5.05-2.32,5.05-5.05s-2.31-5.05-5.05-5.05-5.05,2.32-5.05,5.05,2.31,5.05,5.05,5.05h0Z"></path>
        </g>
        <path fill="#0D0D0D" d="M357.04,42.42l-2.67,1.62c-.13.08-.26.15-.39.23-1.2.65-2.67-.24-2.67-1.62V10.86c.04-1.93.58-3.8,1.57-5.42l1.62-2.67c.73-1.22-.14-2.77-1.56-2.77h-16.92c-1.42,0-2.3,1.55-1.56,2.77l1.62,2.68c.12.21.24.42.36.65.27.53.25,1.16-.04,1.68l-14.88,27.07c-1.56,2.84-5.66,2.74-7.09-.16-1.44-2.9-3.59-5.3-6.5-7.3-.85-.58-1.03-1.76-.42-2.58l8.75-11.78c.23-.32.36-.7.36-1.09V1.82c0-1.01-.82-1.82-1.82-1.82h-34.32c-1.01,0-1.82.82-1.82,1.83v13.58c0,1.42,1.55,2.3,2.77,1.56l2.67-1.62c1.7-1.03,3.66-1.58,5.65-1.58h11.91c1.49-.01,2.35,1.68,1.48,2.88l-7.7,10.62c-.22.31-.35.69-.35,1.07v2.13c0,.99.8,1.81,1.79,1.82,1.53.02,3.75.18,5.53.82,2.14.77,3.63,2.26,4.28,4.37,1.2,3.89-.44,9.28-4.51,14.77-7.3,9.85-14.82,13.26-20.61,9.35-5.24-3.53-4.56-12.25-.63-18.18.21-.32.3-.66.3-1,0-.95-.75-1.83-1.83-1.83h-7.01c-1.12,0-1.96-1.03-1.74-2.13.84-4.12,1.29-8.51,1.15-13.11C271.31,8.72,259.22,0,246.78,0c-6.17,0-11.81,2.52-16.04,6.63-2.54,2.48-6.81.69-6.81-2.86v-1.18c0-1.27-1.26-2.15-2.45-1.72l-13.52,4.88c-1.38.5-1.64,2.33-.46,3.2l1.91,1.4c.47.34.75.89.75,1.47v49.89c0,1.98-.56,3.93-1.58,5.62l-1.62,2.66c-.74,1.22.14,2.77,1.56,2.77h17.01c1.42,0,2.3-1.56,1.56-2.77l-1.62-2.66c-1.01-1.67-1.55-3.6-1.57-5.56v-15.41c0-3.47,4.13-5.33,6.68-2.99,4.05,3.73,9.46,5.93,15.56,5.93,2.61,0,5.06-.63,7.2-1.49,1.45-.58,2.92.79,2.42,2.28-.61,1.82-1.37,3.85-2.28,6-2.81,6.61-5.89,11.07-8.06,13.7-.98,1.19-.12,2.99,1.42,2.98h5.1c.52-.01,1.02-.24,1.37-.63.92-1.05,5.54-6.16,9.93-14.1.01-.02.03-.05.04-.07,1.36-2.46,4.92-2.33,6.1.23,3.99,8.62,12.53,14.59,22.4,14.59s18.92-6.52,22.75-15.96c.62-1.52,2.08-2.53,3.72-2.53h17.53c1.01,0,1.82.82,1.82,1.83v5.54c0,2-.55,3.95-1.58,5.65l-1.62,2.67c-.74,1.22.14,2.77,1.56,2.77h16.92c1.42,0,2.3-1.55,1.56-2.77l-1.62-2.67c-1-1.64-1.54-3.54-1.57-5.45v-4.59c0-1.37,1.47-2.27,2.68-1.61.13.07.26.15.39.23l2.67,1.62c1.22.74,2.77-.14,2.77-1.56v-11.97c0-1.42-1.55-2.29-2.77-1.56ZM259.54,31.05c-.23,2.48-1.27,5.85-4.96,7.85-1.33.72-2.65,1.04-3.94,1.04-4.99,0-9.49-4.81-12.17-9.75-2.19-4.03-3.31-8.21-3.18-11.78.09-2.48.88-5.8,4.05-7.52,8.06-4.38,13.91,2.33,17.39,8.74,2.12,3.9,3.11,7.95,2.79,11.42ZM335.82,45.57h-6.93c-1.38,0-2.26-1.47-1.6-2.69l6.9-12.81c.9-1.67,3.43-1.03,3.43.86l.03,12.81c0,1.01-.81,1.83-1.82,1.83Z"></path>
      </g>
      <g>
        <path fill="#0D0D0D" d="M169.6,99.92h2.94c-.07-.11-.16-.27-.23-.38-.54-.9-.72-1.72-.76-1.95l-1.95-10.56h-1.97c.05.08.12.2.22.38.26.49.36.87.36,1.31,0,.36-.04.73-.12,1.08l-1.44,6.16c-.03-.17-.08-.32-.15-.46-.57-1.17-1.48-1.95-2.36-2.7-1.03-.88-2-1.54-2.31-2.9-.18-.76-.04-1.44.36-1.75.41-.32,1.01-.39,1.57-.17.88.35,2.01,2.01,2.51,3.07,0-.03,0-3.95,0-3.95h0c-.41.23-.91.28-1.37.15h-.03c-.91-.27-1.86-.29-2.62.06-.35.16-1.64,1.04-1.97,2.41v-2.62h0c-.42.23-.92.28-1.37.15h-.03c-.91-.27-1.86-.29-2.62.06-.39.18-2.01,1.29-2.05,2.99-.03,1.06.28,1.88,1.84,3.28.31.28.61.53.91.78,1.26,1.05,2.25,1.87,2.25,3.24,0,.53-.22,1.04-.59,1.35-.35.29-.81.4-1.32.31-.75-.13-1.98-1.13-3.22-3.51v3.07c-.25-.58-.35-1.04-.38-1.2l-1.95-10.56h-1.97c.05.08.12.2.22.38.26.49.36.87.36,1.31,0,.36-.04.73-.12,1.08l-1.8,7.73c-.12.36-.4,1.22-.58,1.64-.03.06-.05.1-.07.15-.13-.32-.2-.66-.2-1v-9.69c0-.48.13-.95.38-1.36l.15-.25h-2.12l-3.6,8.95c-.16.4-.71.43-.91.05l-4.79-9h-1.21l.15.25c.25.41.38.88.38,1.36v9.69c0,.47-.13.94-.38,1.34l-.15.25h1.68l-.15-.25c-.25-.41-.38-.88-.38-1.36v-5.99c0-.52.7-.7.95-.24l3.52,6.62c.2.38.75.35.91-.05l3.02-7.64c.2-.52.97-.37.97.18v7.11c0,.48-.13.95-.38,1.36l-.15.25h3.96l-.23-.38c-.17-.28-.23-.62-.17-1l.83-3.5c.05-.23.26-.39.49-.39h.58c.24,0,.45.17.49.41l.73,3.85c-.02.22-.08.43-.17.62-.08.16-.16.29-.22.39h2.94c-.06-.09-.13-.21-.19-.31.2-.07.4-.11.61-.11.23,0,.46.04.68.14.71.29,1.25.29,1.52.29h.05c1.03,0,1.79-.61,2.33-1.14.14-.14.27-.28.37-.43v1.48c.31-.22.67-.33,1.04-.33.23,0,.46.04.68.14.7.29,1.25.29,1.52.29h.05c1.03,0,1.79-.61,2.34-1.14.11-.1.2-.21.29-.32-.1.27-.19.52-.27.71-.07.15-.12.26-.19.37l-.23.38h1.99l-.23-.38c-.17-.28-.23-.62-.17-1l.83-3.5c.05-.23.26-.39.49-.39h.58c.24,0,.45.17.49.41l.73,3.85c-.02.22-.08.43-.17.62-.08.16-.16.29-.22.39ZM150.19,93.55l.39-1.7c.03-.13.22-.13.25,0l.31,1.71c.03.15-.09.3-.25.3h-.45c-.16,0-.28-.15-.24-.31ZM164.61,98.92c-.35.29-.8.4-1.32.31-.62-.11-1.58-.82-2.6-2.43.06-.49,0-.96-.18-1.31-.58-1.17-1.49-1.95-2.36-2.7-1.03-.88-2-1.54-2.32-2.9-.18-.76-.04-1.44.36-1.75.41-.32,1.01-.39,1.57-.17.86.34,1.96,1.93,2.48,3,.13.77.59,1.51,1.8,2.6.31.28.61.53.91.78,1.26,1.05,2.25,1.87,2.25,3.24,0,.53-.22,1.04-.59,1.35ZM168.04,93.55l.39-1.7c.03-.13.22-.13.25,0l.31,1.71c.03.15-.09.3-.25.3h-.45c-.16,0-.28-.15-.24-.31Z"></path>
        <g>
          <path fill="#0D0D0D" d="M179.33,88.57v6.22c-.03.37-.14.76-.33,1.14-.08.16-.17.29-.23.39h2.88c-.07-.09-.15-.23-.23-.39-.19-.38-.3-.77-.33-1.13v-6.31c.04-.35.15-.7.32-1.03.08-.16.17-.29.23-.39h-2.87c.07.09.15.23.23.39.19.38.3.77.33,1.12Z"></path>
          <path fill="#0D0D0D" d="M179.39,99.29c-.12-.59.4-1.11.99-.99.33.07.59.33.65.66.11.59-.4,1.09-.98.98-.32-.06-.59-.33-.66-.65Z"></path>
        </g>
        <g>
          <g>
            <path fill="#0D0D0D" d="M223.78,98.45v-6.22c.03-.37.14-.76.33-1.14.08-.16.17-.29.23-.39h-2.88c.07.09.15.23.23.39.19.38.3.77.33,1.13v6.31c-.04.35-.15.7-.32,1.03-.08.16-.17.29-.23.39h2.87c-.07-.09-.15-.23-.23-.39-.19-.38-.3-.77-.33-1.12Z"></path>
            <path fill="#0D0D0D" d="M223.71,87.72c.12.59-.4,1.11-.99.99-.33-.07-.59-.33-.65-.66-.11-.59.4-1.09.98-.98.32.06.59.33.66.65Z"></path>
          </g>
          <path fill="#0D0D0D" d="M199.66,95.29h.86c-.31,1.08-.9,2.06-1.71,2.83l-.02.02c-1.22,1.17-2.81,1.81-4.49,1.81s-3.4-.69-4.62-1.95c-2.45-2.56-2.39-6.65.14-9.11,1.22-1.17,2.81-1.81,4.49-1.81v-.09h0v.09c1.76,0,3.4.69,4.62,1.95l.03.03.03.03c.69.72,1.21,1.6,1.5,2.56h-1.75c-1.22-2.13-3.36-3.59-5.47-3.74-.11,0-.23-.01-.34-.01-2.23,0-3.84,1.53-4.01,3.8-.11,1.71.56,3.53,1.84,4.99,1.25,1.43,2.91,2.3,4.55,2.4.12,0,.24.01.35.01,2.22,0,3.83-1.52,4-3.77,0-.02,0-.03,0-.04h0Z"></path>
          <path fill="#0D0D0D" d="M211.6,97.94c-.92,0-1.81-.48-2.43-1.31l-.1-.13h.16c2.32-.16,3.92-2.17,3.9-4.89-.05-2.82-1.72-4.59-4.07-4.55h-2.49l.23.38c.24.39.37.85.37,1.31v9.51c0,.46-.13.91-.36,1.3l-.09.15c-.04-.06-.07-.11-.1-.15-.54-.9-.72-1.72-.76-1.95l-1.95-10.56h-1.97c.05.08.12.2.22.38.26.49.36.87.36,1.31,0,.36-.04.73-.12,1.08l-1.8,7.73c-.12.36-.4,1.22-.58,1.64-.07.15-.12.26-.19.37l-.23.38h1.99l-.23-.38c-.17-.28-.23-.62-.18-1l.84-3.5c.05-.23.26-.38.49-.38h.58c.24,0,.45.17.49.41l.73,3.85c-.02.22-.07.43-.17.62-.08.16-.16.29-.22.39h2.67,0s2.95,0,2.95,0l-.23-.38c-.24-.39-.37-.85-.37-1.31v-1.58l.17.45c.64,1.72,2.17,2.82,3.9,2.82h.14v-2.48c-.08.05-.16.1-.18.11-.43.24-.88.35-1.35.35ZM203.06,93.88h-.45c-.16,0-.28-.15-.25-.31l.39-1.7c.03-.13.22-.13.25,0l.31,1.71c.03.15-.09.29-.25.29ZM208.94,96.19v-8.81h.12c.6.03.95.36,1.31.88,1.19,1.76,1.24,5.1.09,6.92-.37.6-.67.99-1.38,1.02h-.14Z"></path>
          <path fill="#0D0D0D" d="M220.87,99.58l.23.38h-2.38l-2.38-8.31c-.08-.28-.49-.22-.49.07v6.56c0,.46.13.91.36,1.31l.23.38h-2.95l.23-.38c.24-.39.36-.85.36-1.31v-9.52c0-.46-.13-.91-.37-1.31l-.23-.38h2.38l2.38,8.29c.08.28.49.22.49-.07v-6.53c0-.46-.13-.91-.37-1.31l-.23-.38h2.95l-.23.38c-.24.39-.37.85-.37,1.31v9.52c0,.46.13.91.37,1.31Z"></path>
        </g>
      </g>
    </g>
  </g>
</svg>