<?xml version="1.0" encoding="UTF-8"?>
<svg id="Layer_2" data-name="Layer 2" xmlns="http://www.w3.org/2000/svg" viewBox="0 0 361.21 145.83">
  <defs>
    <style>
      .cls-1 {
        fill: #1a1a1a;
      }
    </style>
  </defs>
  <g id="Layer_1-2" data-name="Layer 1">
    <g>
      <g>
        <path class="cls-1" d="M232.31,14.43l-9.14,4.75c-7.72,3.26-17.1,8.86-26.69,8.59-6.82.23-10.41-3.04-11.64-7.36-.39-1.38-1.96-2.06-3.22-1.37-9.36,5.12-17.19,7.13-24.44-1.14-2.07-2.19-3.06-6.71-5.85-7.13-5.02.25-9.01,7.71-10.42,11.7-.12,0-.3.24-.55.73-2.21.6-1.73-1.18-2.1-3.66-.63-5.61-3.71-15.08-10.51-8.04-3.19,4.34-4.92,9.81-6.58,16.27h-.18c-.24,1.02-.95,1.88-2.01,1.83-1.5-.1-2.57-1.15-2.38-2.74,1.47-8.49,1.8-17.47,4.02-25.41,2.09-2.88,5.49-.96,6.03,1.28.54,3.08-.66,3.39-1.28,7.13,7.37-8.06,13.57-1.56,14.99,7.5,1.85-5.39,10.58-14.46,16-7.13,7.19,12.12,14.58,8.99,24.41,2.01.51-.34,1.03-.71,1.56-1.11,2.3-1.68,4.96-4.15,7.21-5.9,2.84-2.21,5.77-4.36,8.45-4.63,6.21.14,9,7.18,6.99,10.81-.63.26-1.32,1.05-2.38,1.1-1.05.06-2.35-.17-2.38-.73-2.3-1.33-.35-8.31-3.78-6.44-2.44.86-6.48,5.99-7.82,11.1-1.3,5.81,3.67,8.81,9.32,8.59,10.93.42,24.47-6.98,30.53-16.09l1.1-.55,1.1-.18c1.55.35,2.15.35,3.11,2.38.4,1.21-.01,3.52-1.46,3.84Z"/>
        <path class="cls-1" d="M240.65,6.93c1.87,0,3.47-1.59,3.47-3.47s-1.59-3.47-3.47-3.47-3.47,1.59-3.47,3.47,1.59,3.47,3.47,3.47h0Z"/>
      </g>
      <g>
        <path class="cls-1" d="M166.54,145.78h3.94c-.09-.15-.22-.36-.31-.51-.73-1.21-.96-2.3-1.02-2.61l-2.61-14.13h-2.64c.07.11.16.27.29.51.35.65.49,1.16.49,1.75,0,.48-.06.97-.16,1.44l-1.92,8.24c-.04-.23-.11-.43-.2-.62-.77-1.57-1.98-2.61-3.16-3.62-1.37-1.18-2.67-2.07-3.1-3.89-.24-1.02-.05-1.92.48-2.35.55-.43,1.35-.52,2.1-.22,1.18.47,2.69,2.68,3.36,4.11,0-.04,0-5.28,0-5.28h0c-.55.31-1.22.38-1.83.19h-.04c-1.22-.36-2.49-.39-3.5.08-.47.21-2.2,1.39-2.64,3.22v-3.5h0c-.56.31-1.23.38-1.83.19h-.04c-1.22-.36-2.49-.39-3.5.08-.53.25-2.68,1.73-2.74,4-.03,1.42.37,2.52,2.46,4.39.41.37.82.71,1.22,1.04,1.68,1.4,3.02,2.51,3.02,4.33,0,.72-.3,1.39-.8,1.81-.47.39-1.08.54-1.77.42-1-.17-2.65-1.51-4.32-4.7v4.11c-.34-.78-.47-1.39-.51-1.61l-2.61-14.13h-2.64c.07.11.16.27.29.51.35.65.49,1.16.49,1.75,0,.48-.05.97-.16,1.44l-2.41,10.35c-.15.48-.53,1.63-.78,2.2-.03.07-.06.14-.09.2-.18-.42-.27-.88-.27-1.34v-12.96c0-.64.18-1.27.51-1.81l.2-.33h-2.83l-4.82,11.98c-.21.53-.95.57-1.22.06l-6.41-12.04h-1.63l.2.33c.33.55.51,1.18.51,1.83v12.96c0,.64-.18,1.26-.51,1.8l-.2.33h2.24l-.2-.33c-.33-.55-.51-1.18-.51-1.81v-8.01c0-.7.94-.93,1.26-.32l4.72,8.86c.27.51,1.01.46,1.22-.07l4.04-10.23c.27-.69,1.3-.49,1.3.25v9.51c0,.64-.18,1.27-.51,1.81l-.2.33h5.29l-.31-.51c-.22-.38-.3-.84-.23-1.34l1.12-4.69c.07-.3.34-.52.65-.52h.78c.32,0,.6.23.66.55l.97,5.16c-.02.29-.1.57-.23.83-.1.21-.21.39-.3.52h3.94c-.07-.12-.17-.28-.25-.41.26-.1.54-.14.82-.14.31,0,.62.06.91.18.94.39,1.68.39,2.03.38h.07c1.38,0,2.39-.81,3.12-1.52.19-.18.36-.38.5-.58v1.97c.41-.29.9-.44,1.39-.44.31,0,.61.06.91.18.94.39,1.68.39,2.03.38h.06c1.38,0,2.39-.81,3.13-1.52.14-.14.27-.28.39-.43-.13.36-.26.7-.36.94-.09.2-.16.35-.25.49l-.31.51h2.66l-.31-.51c-.22-.38-.31-.84-.23-1.34l1.12-4.69c.07-.3.34-.52.65-.52h.78c.32,0,.6.23.66.55l.97,5.16c-.02.29-.1.57-.23.83-.11.21-.21.39-.3.52ZM140.57,137.26l.52-2.28c.04-.18.3-.17.33,0l.41,2.29c.04.21-.12.4-.33.4h-.6c-.22,0-.38-.2-.33-.41ZM159.86,144.45c-.46.39-1.07.54-1.77.42-.84-.14-2.12-1.09-3.48-3.25.08-.66,0-1.28-.24-1.76-.77-1.57-1.99-2.61-3.16-3.62-1.37-1.18-2.67-2.07-3.1-3.89-.24-1.02-.05-1.92.48-2.35.55-.43,1.35-.52,2.1-.22,1.16.46,2.62,2.59,3.31,4.01.18,1.03.79,2.02,2.41,3.47.41.37.82.71,1.22,1.04,1.69,1.4,3.02,2.51,3.02,4.33,0,.72-.3,1.39-.8,1.81ZM164.46,137.26l.52-2.28c.04-.18.3-.17.33,0l.42,2.29c.04.21-.12.4-.33.4h-.6c-.22,0-.38-.2-.33-.41Z"/>
        <g>
          <path class="cls-1" d="M179.56,130.59v8.32c-.04.49-.19,1.01-.44,1.52-.11.21-.22.39-.31.52h3.86c-.09-.12-.2-.3-.31-.52-.25-.51-.4-1.03-.44-1.51v-8.45c.06-.46.2-.94.42-1.38.11-.21.22-.39.31-.52h-3.84c.09.12.2.3.31.52.25.5.4,1.02.44,1.5Z"/>
          <path class="cls-1" d="M179.65,144.94c-.16-.79.53-1.48,1.32-1.32.44.09.79.45.87.88.14.78-.53,1.45-1.31,1.31-.43-.08-.79-.44-.88-.87Z"/>
        </g>
        <g>
          <g>
            <path class="cls-1" d="M239.04,143.81v-8.32c.04-.49.19-1.01.44-1.52.11-.21.22-.39.31-.52h-3.86c.09.12.2.3.31.52.25.51.4,1.03.44,1.51v8.45c-.06.46-.2.94-.42,1.38-.11.21-.22.39-.31.52h3.84c-.09-.12-.2-.3-.31-.52-.25-.5-.4-1.02-.44-1.5Z"/>
            <path class="cls-1" d="M238.95,129.46c.16.79-.53,1.48-1.32,1.32-.44-.09-.79-.45-.87-.88-.14-.78.53-1.45,1.31-1.31.43.08.79.44.88.87Z"/>
          </g>
          <path class="cls-1" d="M206.77,139.59h1.15c-.42,1.45-1.2,2.75-2.28,3.79l-.02.02c-1.63,1.56-3.76,2.42-6.01,2.42s-4.54-.93-6.18-2.6c-3.28-3.43-3.2-8.9.18-12.19,1.63-1.56,3.76-2.42,6.01-2.42v-.12h0v.12c2.35,0,4.55.93,6.18,2.61l.04.04.04.04c.93.97,1.62,2.14,2.01,3.42h-2.35c-1.63-2.85-4.49-4.8-7.32-5-.15-.01-.3-.02-.45-.02-2.98,0-5.14,2.04-5.37,5.09-.15,2.29.75,4.73,2.47,6.68,1.68,1.91,3.9,3.08,6.09,3.21.16.01.32.02.47.02,2.97,0,5.12-2.03,5.35-5.05,0-.02,0-.04,0-.06h0Z"/>
          <path class="cls-1" d="M222.75,143.13c-1.24,0-2.42-.64-3.25-1.75l-.13-.17h.21c3.1-.21,5.24-2.9,5.21-6.54-.06-3.77-2.3-6.15-5.44-6.09h-3.33l.31.51c.32.53.49,1.13.49,1.75v12.73c0,.62-.17,1.22-.49,1.75l-.12.2c-.05-.07-.09-.14-.13-.2-.72-1.21-.96-2.3-1.02-2.61l-2.61-14.13h-2.64c.07.11.16.27.29.51.35.65.49,1.16.49,1.75,0,.48-.05.97-.16,1.44l-2.41,10.35c-.15.48-.53,1.63-.78,2.2-.09.2-.16.35-.25.49l-.31.51h2.66l-.31-.51c-.23-.38-.31-.84-.24-1.34l1.12-4.69c.07-.3.34-.51.65-.51h.78c.32,0,.6.23.66.55l.97,5.15c-.02.29-.1.57-.23.83-.1.21-.21.39-.3.52h3.57,0s3.95.01,3.95.01l-.31-.51c-.32-.53-.49-1.14-.49-1.75v-2.11l.23.6c.86,2.3,2.91,3.77,5.21,3.77h.18v-3.31c-.1.06-.22.14-.24.15-.57.32-1.18.47-1.81.47ZM211.32,137.7h-.6c-.22,0-.38-.2-.33-.41l.52-2.28c.04-.18.3-.17.33,0l.41,2.29c.04.21-.12.39-.33.39ZM219.18,140.78v-11.79h.15c.81.04,1.27.48,1.75,1.17,1.6,2.36,1.66,6.82.12,9.26-.49.8-.89,1.33-1.84,1.36h-.18Z"/>
          <path class="cls-1" d="M235.15,145.32l.31.51h-3.18l-3.19-11.12c-.11-.37-.66-.3-.66.09v8.77c0,.62.17,1.22.49,1.75l.31.51h-3.95l.31-.51c.32-.53.49-1.13.49-1.75v-12.74c0-.62-.17-1.22-.49-1.75l-.31-.51h3.18l3.19,11.09c.11.37.66.3.66-.09v-8.74c0-.62-.17-1.22-.49-1.75l-.31-.51h3.95l-.31.51c-.32.53-.49,1.13-.49,1.75v12.74c0,.62.17,1.22.49,1.75Z"/>
        </g>
      </g>
      <g>
        <path class="cls-1" d="M35.25,77.32v3.55c0,14.41-9.99,26.98-23.68,29.9-.05.01-.1.02-.15.02H.69c-.54,0-.87-.59-.59-1.05l.39-.65c1.24-2.05,1.9-4.4,1.9-6.8v-46.42c0-2.39-.66-4.74-1.9-6.79l-.4-.65c-.28-.46.05-1.05.59-1.05h10.69c.05,0,.1,0,.16.02,13.75,2.95,23.72,15.51,23.72,29.93ZM26.58,80.87v-3.55c0-8.23-1.95-22.55-14.98-25.96l-.54-.14v55.68l.55-.15c9.37-2.6,14.97-12.28,14.97-25.89h0Z"/>
        <path class="cls-1" d="M45.66,50.42v26.1c0,.47.47.81.91.65l.23-.08c1.85-.64,3.37-1.91,4.27-3.56l.8-1.47v14.04l-.8-1.47c-.9-1.65-2.41-2.92-4.27-3.56l-.23-.08c-.45-.16-.91.18-.91.65v25.42c0,.38.31.69.69.69h.24c3.64,0,7.07-1.94,8.95-5.06l1.17-1.95v9.36c0,.38-.31.69-.69.69h-19.56c-.54,0-.87-.59-.59-1.04h0c1.28-2.12,1.96-4.55,1.96-7.02v-47.27c0-2.47-.68-4.9-1.96-7.02h0c-.28-.46.05-1.05.59-1.05h19.56c.38,0,.69.31.69.69v9.36l-1.17-1.95c-1.88-3.12-5.31-5.06-9.03-5.06h-.86Z"/>
        <path class="cls-1" d="M59.95,109.86l19.58-54.43c.88-2.46-.94-5.05-3.55-5.05h-6.59c-3.62.02-7.03,1.95-8.9,5.05l-1.17,1.95v-9.36c0-.38.31-.69.69-.69l29.76.04c.48,0,.81.47.65.92l-19.55,54.34c-.88,2.46.94,5.05,3.55,5.05h6.6c3.62-.02,7.03-1.96,8.9-5.05l1.17-1.95v9.36c.01.38-.3.69-.68.69l-29.81.05c-.48,0-.81-.47-.65-.92Z"/>
        <path class="cls-1" d="M104.1,50.42v26.1c0,.47.47.81.91.65l.23-.08c1.85-.64,3.37-1.91,4.27-3.56l.8-1.47v14.04l-.8-1.47c-.9-1.65-2.41-2.92-4.27-3.56l-.23-.08c-.45-.16-.91.18-.91.65v25.42c0,.38.31.69.69.69h.24c3.64,0,7.07-1.94,8.95-5.06l1.17-1.95v9.36c0,.38-.31.69-.69.69h-19.56c-.54,0-.87-.59-.59-1.04h0c1.28-2.12,1.96-4.55,1.96-7.02v-47.27c0-2.48-.68-4.91-1.96-7.03h0c-.28-.46.05-1.05.59-1.05h19.56c.38,0,.69.31.69.69v9.36l-1.17-1.95c-1.88-3.12-5.31-5.06-9.03-5.06h-.86Z"/>
        <path class="cls-1" d="M154.07,108.92l.5.82c.28.46-.05,1.05-.59,1.05h-9.96c-.31,0-.58-.2-.66-.5l-11.44-39.91c-.42-1.45-2.56-1.15-2.56.36v31.56c0,2.39.66,4.74,1.89,6.79l.4.67c.28.46-.05,1.04-.59,1.04h-12.09c-.54,0-.87-.59-.59-1.04l.5-.82c1.18-1.94,1.8-4.17,1.8-6.44v-46.83c0-2.27-.62-4.49-1.8-6.44l-.5-.82c-.28-.46.05-1.05.59-1.05h9.96c.31,0,.58.2.66.5l11.45,39.8c.42,1.45,2.56,1.15,2.56-.36v-31.64c0-2.27-.62-4.5-1.8-6.44l-.5-.82c-.28-.46.05-1.04.59-1.04h12.09c.54,0,.87.59.59,1.04l-.5.82c-1.18,1.94-1.8,4.17-1.8,6.44v46.83c0,2.27.62,4.49,1.8,6.44Z"/>
        <path class="cls-1" d="M219.49,79.39c-.16,8.51-3.63,16.44-9.77,22.32l-.1.1c-12.76,12.24-33.15,11.93-45.44-.69-12.24-12.76-11.93-33.15.69-45.44,6.25-6,14.33-8.98,22.4-8.98s16.78,3.24,23.05,9.67l.29.3c5.89,6.14,9.04,14.21,8.88,22.71ZM213.15,87.66c.61-8.1-2.58-16.84-8.77-24-6.15-7.11-14.27-11.51-22.28-12.07-11.46-.79-20.07,6.71-20.94,18.25h0c-.56,8.31,2.71,17.15,8.97,24.26,6.1,6.93,14.15,11.18,22.09,11.66.59.04,1.17.06,1.74.06,10.73,0,18.35-7.12,19.19-18.16Z"/>
        <path class="cls-1" d="M242.82,47.35h7.02c.53,0,.86.57.6,1.03-.3.53-.68,1.24-1.05,2.05-.81,1.81-13.68,46.86-16.84,57.93-.19.67-1.15.66-1.33-.02l-12.91-50.14s-1.01-4.62-3.71-9.58c-.04-.07-.08-.15-.13-.23-.26-.46.08-1.02.6-1.02h10.53c.51,0,.85.54.61,1-.05.09-.09.18-.14.28-.81,1.65-1.1,3.34-.84,5.03,0,.03.01.06.02.09l6.99,26.42c.66,2.5,4.2,2.53,4.9.03l6.78-24.2c.98-2.78.86-5.41-.37-7.45l-.73-1.21h0Z"/>
        <path class="cls-1" d="M262.59,50.42v26.1c0,.47.47.81.91.65l.23-.08c1.85-.64,3.37-1.91,4.27-3.56l.8-1.47v14.04l-.8-1.47c-.9-1.65-2.41-2.92-4.27-3.56l-.23-.08c-.45-.16-.91.18-.91.65v25.41c0,.38.31.69.69.69h.24c3.64,0,7.07-1.94,8.95-5.06l1.17-1.95v9.36c0,.38-.31.69-.69.69h-19.56c-.54,0-.87-.59-.59-1.04h0c1.28-2.12,1.96-4.55,1.96-7.02v-47.27c0-2.48-.68-4.91-1.96-7.03h0c-.28-.46.05-1.05.59-1.05h19.56c.38,0,.69.31.69.69v9.36l-1.17-1.95c-1.88-3.12-5.31-5.06-9.03-5.06h-.86Z"/>
        <path class="cls-1" d="M360,88.47c-1.75,1.06-3.78,1.69-5.9,1.82h-.18c-.4.04-.73-.28-.73-.68v-34.58c.05-2.29.69-4.5,1.85-6.41l.1-.16c.28-.46-.05-1.05-.59-1.05h-10.46c-.54,0-.87.59-.59,1.05l.1.16c.48.79.87,1.66,1.2,2.67l.11.36-14.9,27.03c-1.45,2.62-5.27,2.58-6.6-.11-1.61-3.24-4.31-5.7-8.26-7.64l-.19-.09c-.39-.19-.5-.68-.25-1.03l10.37-13.97c.09-.12.14-.26.14-.41v-7.49c0-.38-.31-.69-.69-.69h-29.28c-.38,0-.69.31-.69.69v8.52c0,.54.59.87,1.05.59l.16-.1c1.83-1.11,3.9-1.74,6.03-1.85h0s12.89-.02,12.89-.02c3.08,0,4.87,3.49,3.06,5.99l-7.57,10.48c-.08.12-.13.26-.13.4v.59c1.62.06,3.6.43,5.16.97,2.79.97,4.8,3.03,5.66,5.8,1.38,4.46-.31,10.38-4.64,16.23-5.51,7.43-11.31,11.35-16.79,11.35-2.2,0-4.28-.65-6.17-1.93-5.69-3.85-5.75-12.01-2.62-18.39.22-.45-.11-.98-.62-.98l-5.53-.03c-.34,0-.64.25-.69.59-.15,1.05-.23,2.11-.23,3.16,0,11.85,9.33,21.5,20.81,21.5,8.97,0,16.64-6.11,19.57-14.79.52-1.55,1.95-2.62,3.59-2.62h14.12c2.09,0,3.78,1.69,3.78,3.78v5.75c0,2.35-.65,4.66-1.86,6.66l-.1.17c-.28.46.05,1.04.59,1.04h10.46c.54,0,.87-.59.59-1.04l-.1-.17c-1.17-1.94-1.82-4.17-1.85-6.46v-9c0-.4.33-.71.73-.69h.18c2.12.14,4.16.77,5.9,1.83l.16.1c.46.28,1.05-.05,1.05-.59v-5.8c0-.54-.59-.87-1.05-.59l-.16.1ZM330.39,84.71l13.72-25.29c.34-.63,1.29-.39,1.29.33l.06,26.75c0,2.09-1.69,3.78-3.78,3.78h-7.98c-2.86,0-4.68-3.06-3.32-5.58Z"/>
      </g>
    </g>
  </g>
</svg>